<svg xmlns="http://www.w3.org/2000/svg" version="1.1" xmlns:xlink="http://www.w3.org/1999/xlink" xmlns:svgjs="http://svgjs.com/svgjs" width="1440" height="560" preserveAspectRatio="none" viewBox="0 0 1440 560"><g mask="url(&quot;#SvgjsMask1001&quot;)" fill="none"><path d="M267.58 356.69L312.56 356.69L312.56 370.16L267.58 370.16z" fill="#e73635"></path><path d="M1182.59 264.17L1201.43 264.17L1201.43 280.88L1182.59 280.88z" stroke="#037b0b"></path><path d="M942.72 16.21L957.42 16.21L957.42 30.91L942.72 30.91z" stroke="#e73635"></path><path d="M513.73 207.34 a50.05 50.05 0 1 0 100.1 0 a50.05 50.05 0 1 0 -100.1 0z" fill="#e73635"></path><path d="M1165.59 292.08a55 55 0 1 0 106.62-27.05z" stroke="#d3b714"></path><path d="M1161.94 169.79a0.5 0.5 0 1 0 0.57 0.83z" stroke="#e73635"></path><path d="M870.62 308.73a4 4 0 1 0-7.6 2.5z" stroke="#e73635"></path><path d="M987.52 507.16L1015 507.16L1015 534.64L987.52 534.64z" fill="#037b0b"></path><path d="M415.78 455.77a49.35 49.35 0 1 0 90.37 39.68z" stroke="#d3b714"></path><path d="M997.12 458.2L1002.27 458.2L1002.27 510.5L997.12 510.5z" fill="#037b0b"></path><path d="M876.69 199.57L878.1 199.57L878.1 200.98L876.69 200.98z" fill="#d3b714"></path><path d="M378.71 187.27a10.89 10.89 0 1 0-6.46-20.8z" fill="#037b0b"></path><path d="M873.66 3.71L926.35 3.71L926.35 56.4L873.66 56.4z" fill="#d3b714"></path><path d="M1192.2 48.32L1236.79 48.32L1236.79 92.91L1192.2 92.91z" fill="#037b0b"></path><path d="M1355.62 536.75a21.2 21.2 0 1 0 6.77 41.85z" stroke="#e73635"></path><path d="M794.65 131.43a14.04 14.04 0 1 0 27.92 3.04z" stroke="#e73635"></path><path d="M1055.44 191.05L1083.96 191.05L1083.96 193.21L1055.44 193.21z" stroke="#037b0b"></path><path d="M1431.35 296.86L1436.41 296.86L1436.41 340.03L1431.35 340.03z" stroke="#e73635"></path><path d="M562.67 294.92L587.23 294.92L587.23 335.81L562.67 335.81z" stroke="#d3b714"></path><path d="M204.84 110.3L235.45 110.3L235.45 132.08L204.84 132.08z" stroke="#037b0b"></path><path d="M145.04 370.17a22.52 22.52 0 1 0 44.44 7.32z" fill="#d3b714"></path><path d="M578.67 201.65 a10.28 10.28 0 1 0 20.56 0 a10.28 10.28 0 1 0 -20.56 0z" fill="#037b0b"></path><path d="M88.83 489.45L135.34 489.45L135.34 535.96L88.83 535.96z" fill="#037b0b"></path><path d="M1224.6 437.06 a32.13 32.13 0 1 0 64.26 0 a32.13 32.13 0 1 0 -64.26 0z" fill="#e73635"></path><path d="M704.82 230.52L722.62 230.52L722.62 254.49L704.82 254.49z" stroke="#e73635"></path><path d="M171.82 359.47L210.52 359.47L210.52 398.17L171.82 398.17z" fill="#037b0b"></path><path d="M1414.89 254.17L1430.3 254.17L1430.3 269.58L1414.89 269.58z" fill="#d3b714"></path><path d="M221.87 186.04a36.21 36.21 0 1 0 41.27-59.52z" stroke="#e73635"></path><path d="M33.47 330.09a32.1 32.1 0 1 0 63.89-6.3z" stroke="#e73635"></path><path d="M960.57 477.7L1002.07 477.7L1002.07 489.67L960.57 489.67z" fill="#d3b714"></path><path d="M1380 426.19a24.85 24.85 0 1 0-23.13 43.99z" stroke="#e73635"></path><path d="M1364.52 59.93 a0.14 0.14 0 1 0 0.28 0 a0.14 0.14 0 1 0 -0.28 0z" fill="#d3b714"></path><path d="M335.89 141.64L378.29 141.64L378.29 184.04L335.89 184.04z" stroke="#037b0b"></path></g><defs><mask id="SvgjsMask1001"><rect width="1440" height="560" fill="#ffffff"></rect></mask></defs></svg>